<svg version="1.1" xmlns="http://www.w3.org/2000/svg" style="display: block;" viewBox="0 0 2048 2048" width="2048" height="2048" preserveAspectRatio="none" xmlns:c2pa="http://c2pa.org/manifest"><metadata><c2pa:manifest>AAAMZ2p1bWIAAAAeanVtZGMycGEAEQAQgAAAqgA4m3EDYzJwYQAAAAxBanVtYgAAAEdqdW1kYzJtYQARABCAAACqADibcQN1cm46YzJwYTpmNjUwYzI2ZS1jYzBhLTRmZDYtOTA5MS1hMGZkOTllMzcwNWQAAAAB4mp1bWIAAAApanVtZGMyYXMAEQAQgAAAqgA4m3EDYzJwYS5hc3NlcnRpb25zAAAAAO1qdW1iAAAAQWp1bWRjYm9yABEAEIAAAKoAOJtxE2MycGEuYWN0aW9ucy52MgAAAAAYYzJzaJK3uwkU2NxYaIKaPqkfcoUAAACkY2JvcqFnYWN0aW9uc4GjZmFjdGlvbmxjMnBhLmNyZWF0ZWRxZGlnaXRhbFNvdXJjZVR5cGV4Rmh0dHA6Ly9jdi5pcHRjLm9yZy9uZXdzY29kZXMvZGlnaXRhbHNvdXJjZXR5cGUvdHJhaW5lZEFsZ29yaXRobWljTWVkaWFrZGVzY3JpcHRpb252Q3JlYXRlZCBieSBSZWNyYWZ0IEFJLgAAAMRqdW1iAAAAQGp1bWRjYm9yABEAEIAAAKoAOJtxE2MycGEuaGFzaC5kYXRhAAAAABhjMnNo6Nj4pLgaZPqJjnFeRX3cAQAAAHxjYm9ypWpleGNsdXNpb25zgaJlc3RhcnQY22ZsZW5ndGgZEIxkbmFtZW5qdW1iZiBtYW5pZmVzdGNhbGdmc2hhMjU2ZGhhc2hYIN9WXyEKk8yYHesJGfGoLSqsoRlAxmfxeffwXwDCl7g7Y3BhZEkAAAAAAAAAAAAAAAI0anVtYgAAACdqdW1kYzJjbAARABCAAACqADibcQNjMnBhLmNsYWltLnYyAAAAAgVjYm9ypmppbnN0YW5jZUlEeCx4bXA6aWlkOmIyMDc5MWIzLTQ3NmYtNDc3ZS05MGQxLTYxNzlhODViNmM4MnRjbGFpbV9nZW5lcmF0b3JfaW5mb6NkbmFtZWpyZWNyYWZ0LmFpZ3ZlcnNpb254KDgxY2U4MmUyYzVjM2NiZmJlOGM2ZmJlMTc5ZDVmOGQ5MWM0MDljZTF3b3JnLmNvbnRlbnRhdXRoLmMycGFfcnNmMC45MC43aXNpZ25hdHVyZXhNc2VsZiNqdW1iZj0vYzJwYS91cm46YzJwYTpmNjUwYzI2ZS1jYzBhLTRmZDYtOTA5MS1hMGZkOTllMzcwNWQvYzJwYS5zaWduYXR1cmVyY3JlYXRlZF9hc3NlcnRpb25zgqJjdXJseCpzZWxmI2p1bWJmPWMycGEuYXNzZXJ0aW9ucy9jMnBhLmFjdGlvbnMudjJkaGFzaFggEvHR7EnBqrQmftZkrBJDuQBCc8/L5FWsZ9x2zeGs4nGiY3VybHgpc2VsZiNqdW1iZj1jMnBhLmFzc2VydGlvbnMvYzJwYS5oYXNoLmRhdGFkaGFzaFggpljklhSylzQvku7yvf1QXXuDaL4crgXZw5Pa4jx4sfloZGM6dGl0bGV4GlJlY3JhZnQgQUkgR2VuZXJhdGVkIEltYWdlY2FsZ2ZzaGEyNTYAAAfcanVtYgAAAChqdW1kYzJjcwARABCAAACqADibcQNjMnBhLnNpZ25hdHVyZQAAAAesY2JvctKEWQOwogEmGCGCWQHnMIIB4zCCAYmgAwIBAgIJALfeWmNDUW56MAoGCCqGSM49BAMCMEAxHzAdBgNVBAMMFlJlY3JhZnQgU3RhZ2luZyBEZXYgQ0ExEDAOBgNVBAoMB1JlY3JhZnQxCzAJBgNVBAYTAlVTMB4XDTI2MDYxMjE5NDM1MFoXDTI3MDYxMjE5NDM1MFowNzELMAkGA1UEBhMCVVMxEzARBgNVBAoTClJlY3JhZnQgQUkxEzARBgNVBAMTCnJlY3JhZnQuYWkwWTATBgcqhkjOPQIBBggqhkjOPQMBBwNCAARKaTVbACsg/DeG3LeOxYdID/VA6EFG73E6Oknb+KIiCFJygRUz4ueN2z/t2qYb6CIUvS8RvgOiiClfoqsYtw81o3UwczAMBgNVHRMBAf8EAjAAMA4GA1UdDwEB/wQEAwIGwDATBgNVHSUEDDAKBggrBgEFBQcDBDAdBgNVHQ4EFgQULzHpBen96SL1y4IPHa8MkMshXf0wHwYDVR0jBBgwFoAUAgsqOBrKqpdK//m/kxZo7ZR4ebcwCgYIKoZIzj0EAwIDSAAwRQIgU8hKW0aXvvk8SQgVFNkax69Ym9ae8GsT2RZTQw+B51ACIQC0D4BkEoRD4N0r2ZRkNy0HZaW3WICy/QZGN95ilF4yzFkBvTCCAbkwggFfoAMCAQICCQCc+Wg7T6ATbzAKBggqhkjOPQQDAjBAMR8wHQYDVQQDDBZSZWNyYWZ0IFN0YWdpbmcgRGV2IENBMRAwDgYDVQQKDAdSZWNyYWZ0MQswCQYDVQQGEwJVUzAeFw0yNjA2MTIxOTQwMTZaFw0yODA2MTExOTQwMTZaMEAxHzAdBgNVBAMMFlJlY3JhZnQgU3RhZ2luZyBEZXYgQ0ExEDAOBgNVBAoMB1JlY3JhZnQxCzAJBgNVBAYTAlVTMFkwEwYHKoZIzj0CAQYIKoZIzj0DAQcDQgAEQ9IQBlcVbKaKPYrQSfOhL/00s7xUDC7RinIuLO/I1k99y9yh6oWF9kPxaP+tx1v1PeOL3yrVquJ730H0ZGiDyqNCMEAwDwYDVR0TAQH/BAUwAwEB/zAOBgNVHQ8BAf8EBAMCAYYwHQYDVR0OBBYEFAILKjgayqqXSv/5v5MWaO2UeHm3MAoGCCqGSM49BAMCA0gAMEUCIFQwNImLlYDeQhjgF+ZiqTbgcuzSqmOJw3Q2lQ/hu83FAiEA9O8cLm/xfoVLqB4jtdbuHzi3WL+p2RN+DRGkwpYswVuhY3BhZFkDpAAAAAAAAAAAAAAAAAAAAAAAAAAAAAAAAAAAAAAAAAAAAAAAAAAAAAAAAAAAAAAAAAAAAAAAAAAAAAAAAAAAAAAAAAAAAAAAAAAAAAAAAAAAAAAAAAAAAAAAAAAAAAAAAAAAAAAAAAAAAAAAAAAAAAAAAAAAAAAAAAAAAAAAAAAAAAAAAAAAAAAAAAAAAAAAAAAAAAAAAAAAAAAAAAAAAAAAAAAAAAAAAAAAAAAAAAAAAAAAAAAAAAAAAAAAAAAAAAAAAAAAAAAAAAAAAAAAAAAAAAAAAAAAAAAAAAAAAAAAAAAAAAAAAAAAAAAAAAAAAAAAAAAAAAAAAAAAAAAAAAAAAAAAAAAAAAAAAAAAAAAAAAAAAAAAAAAAAAAAAAAAAAAAAAAAAAAAAAAAAAAAAAAAAAAAAAAAAAAAAAAAAAAAAAAAAAAAAAAAAAAAAAAAAAAAAAAAAAAAAAAAAAAAAAAAAAAAAAAAAAAAAAAAAAAAAAAAAAAAAAAAAAAAAAAAAAAAAAAAAAAAAAAAAAAAAAAAAAAAAAAAAAAAAAAAAAAAAAAAAAAAAAAAAAAAAAAAAAAAAAAAAAAAAAAAAAAAAAAAAAAAAAAAAAAAAAAAAAAAAAAAAAAAAAAAAAAAAAAAAAAAAAAAAAAAAAAAAAAAAAAAAAAAAAAAAAAAAAAAAAAAAAAAAAAAAAAAAAAAAAAAAAAAAAAAAAAAAAAAAAAAAAAAAAAAAAAAAAAAAAAAAAAAAAAAAAAAAAAAAAAAAAAAAAAAAAAAAAAAAAAAAAAAAAAAAAAAAAAAAAAAAAAAAAAAAAAAAAAAAAAAAAAAAAAAAAAAAAAAAAAAAAAAAAAAAAAAAAAAAAAAAAAAAAAAAAAAAAAAAAAAAAAAAAAAAAAAAAAAAAAAAAAAAAAAAAAAAAAAAAAAAAAAAAAAAAAAAAAAAAAAAAAAAAAAAAAAAAAAAAAAAAAAAAAAAAAAAAAAAAAAAAAAAAAAAAAAAAAAAAAAAAAAAAAAAAAAAAAAAAAAAAAAAAAAAAAAAAAAAAAAAAAAAAAAAAAAAAAAAAAAAAAAAAAAAAAAAAAAAAAAAAAAAAAAAAAAAAAAAAAAAAAAAAAAAAAAAAAAAAAAAAAAAAAAAAAAAAAAAAAAAAAAAAAAAAAAAAAAAAAAAAAAAAAAAAAAAAAAAAAAAAAAAAAAAAAAAAAAAAAAAAAAAAAAAAAAAAAAAAAAAAAAAAAAAAAAAAAAAAAA9lhAobTQ7BjY8Zz2yBE67ciR9w14Be2rbIMZmC+OrvTe7AZWt1kycQ1+SEdlqqR1lBTN7O88rhTKGCdTD42Eo0dxFw==</c2pa:manifest></metadata>
<path transform="translate(0,0)" fill="rgb(250,247,241)" d="M 0 0 L 2048 0 L 2048 2048 L 0 2048 L 0 0 z"/>
<path transform="translate(0,0)" fill="rgb(250,247,241)" d="M 878.599 540.776 C 895.55 461.207 975.906 407.503 1055.86 425.514 C 1095.25 434.664 1129.35 459.176 1150.58 493.598 C 1156.7 503.499 1169.7 529.645 1170.14 540.842 C 1233.14 540.832 1273.07 544.812 1322.56 591.794 C 1334.62 603.246 1358.78 637.166 1361.75 652.703 C 1370.49 671.312 1372.95 694.579 1373.27 714.954 C 1419.5 730.253 1455.54 753.373 1477.95 798.493 C 1486.49 815.754 1491.82 834.419 1493.69 853.583 C 1495.8 874.643 1494.67 906.309 1494.57 928.454 L 1494.51 1050.05 L 1494.49 1231.68 C 1494.42 1260.51 1495.68 1301.44 1493.44 1328.98 C 1491.48 1353.87 1486.37 1378.41 1478.23 1402.02 C 1448.97 1485.21 1387.96 1553.43 1308.55 1591.76 C 1281.35 1605 1230.52 1622.12 1200.1 1622 C 1192.87 1624.46 1126.95 1626.14 1116.23 1625.12 C 1086.76 1627.37 1036.11 1625.59 1005.39 1625.69 C 977.002 1625.81 948.611 1625.78 920.22 1625.6 C 898.773 1625.48 878.489 1625.92 857.116 1623.51 C 824.678 1619 793.784 1606.82 766.997 1587.97 C 721.775 1556.05 690.866 1507.67 680.902 1453.22 C 675.326 1428.36 677.056 1392.21 676.767 1365.73 C 663.567 1363 647.167 1356.83 635.316 1350.58 C 598.38 1330.89 570.924 1297.17 559.14 1257 C 555.858 1246.09 552.927 1231.48 552.602 1220.04 C 551.306 1174.47 552.446 1128.72 551.958 1083.11 C 551.805 1068.74 551.449 1052.61 553.44 1038.51 C 556.065 1019.59 562.061 1001.29 571.145 984.488 C 594.363 942.033 630.592 918.709 675.847 905.244 C 677.773 902.304 675.951 721.399 678.532 696.337 C 684.052 657.853 701.805 622.166 729.167 594.548 C 759.061 564.458 798.55 545.79 840.775 541.786 C 851.95 540.646 867.151 540.868 878.599 540.776 z"/>
<path transform="translate(0,0)" fill="rgb(124,58,237)" d="M 678.532 696.337 C 684.052 657.853 701.805 622.166 729.167 594.548 C 759.061 564.458 798.55 545.79 840.775 541.786 C 851.95 540.646 867.151 540.868 878.599 540.776 C 878.551 542.366 878.259 548.45 878.37 549.72 L 877.107 558.85 C 876.617 560.604 876.061 564.193 874.845 564.731 C 866.578 568.385 859.421 564.159 849.628 566.843 C 792.635 574.212 750.592 599.573 720.399 650.067 C 709.759 667.86 708.209 677.246 702.113 696.76 C 693.692 744.58 701.66 806.754 698.95 856.302 C 698.677 861.299 698.415 897.684 699.687 900.919 L 701.816 901.576 L 699.363 902.767 C 696.688 912.115 698.37 982.993 698.361 996.386 L 698.469 1274.33 L 698.419 1338.66 C 698.416 1345.08 698.023 1364.1 698.952 1369.21 C 699.48 1377.7 700.239 1384.32 701.406 1392.76 C 712.026 1438.74 732.628 1470.01 770.083 1498.84 C 822.1 1494.96 861.236 1488.09 910.81 1468.74 C 1038.06 1419.06 1140.55 1305.62 1164.5 1169.54 C 1170.75 1134.05 1169.11 1097.59 1169.1 1061.55 L 1169.06 928.885 C 1169.04 900.227 1167.27 866.327 1174.03 839.007 C 1181.37 809.97 1196.45 783.467 1217.66 762.321 C 1255.48 724.171 1296.09 710.83 1348.29 710.764 L 1348.87 710.002 C 1351.89 711.682 1367.1 713.666 1371.87 714.557 C 1371.8 700.255 1370.26 687.796 1366.87 673.915 C 1365.21 667.124 1362.5 659.365 1361.75 652.703 C 1370.49 671.312 1372.95 694.579 1373.27 714.954 C 1419.5 730.253 1455.54 753.373 1477.95 798.493 C 1486.49 815.754 1491.82 834.419 1493.69 853.583 C 1495.8 874.643 1494.67 906.309 1494.57 928.454 L 1494.51 1050.05 L 1494.49 1231.68 C 1494.42 1260.51 1495.68 1301.44 1493.44 1328.98 C 1491.48 1353.87 1486.37 1378.41 1478.23 1402.02 C 1448.97 1485.21 1387.96 1553.43 1308.55 1591.76 C 1281.35 1605 1230.52 1622.12 1200.1 1622 C 1192.87 1624.46 1126.95 1626.14 1116.23 1625.12 C 1086.76 1627.37 1036.11 1625.59 1005.39 1625.69 C 977.002 1625.81 948.611 1625.78 920.22 1625.6 C 898.773 1625.48 878.489 1625.92 857.116 1623.51 C 824.678 1619 793.784 1606.82 766.997 1587.97 C 721.775 1556.05 690.866 1507.67 680.902 1453.22 C 675.326 1428.36 677.056 1392.21 676.767 1365.73 C 663.567 1363 647.167 1356.83 635.316 1350.58 C 598.38 1330.89 570.924 1297.17 559.14 1257 C 555.858 1246.09 552.927 1231.48 552.602 1220.04 C 551.306 1174.47 552.446 1128.72 551.958 1083.11 C 551.805 1068.74 551.449 1052.61 553.44 1038.51 C 556.065 1019.59 562.061 1001.29 571.145 984.488 C 594.363 942.033 630.592 918.709 675.847 905.244 C 677.773 902.304 675.951 721.399 678.532 696.337 z"/>
<path transform="translate(0,0)" fill="rgb(245,158,11)" d="M 770.083 1498.84 C 822.1 1494.96 861.236 1488.09 910.81 1468.74 C 1038.06 1419.06 1140.55 1305.62 1164.5 1169.54 C 1170.75 1134.05 1169.11 1097.59 1169.1 1061.55 L 1169.06 928.885 C 1169.04 900.227 1167.27 866.327 1174.03 839.007 C 1181.37 809.97 1196.45 783.467 1217.66 762.321 C 1255.48 724.171 1296.09 710.83 1348.29 710.764 C 1350.83 717.397 1349.47 871.312 1349.46 892.697 L 1349.1 1382.94 C 1342.59 1429.73 1321.79 1467.63 1283.85 1496.52 C 1262.26 1512.98 1237.07 1524.09 1210.36 1528.92 C 1190.62 1532.43 1158.37 1531.6 1137.58 1531.64 L 1019.77 1531.46 L 913.317 1531.53 C 891.868 1531.54 866.43 1532.23 845.491 1529.74 C 822.577 1527.01 787.995 1513.81 770.083 1498.84 z"/>
<path transform="translate(0,0)" fill="rgb(245,158,11)" d="M 1373.27 714.954 C 1419.5 730.253 1455.54 753.373 1477.95 798.493 C 1486.49 815.754 1491.82 834.419 1493.69 853.583 C 1495.8 874.643 1494.67 906.309 1494.57 928.454 L 1494.51 1050.05 L 1494.49 1231.68 C 1494.42 1260.51 1495.68 1301.44 1493.44 1328.98 C 1491.48 1353.87 1486.37 1378.41 1478.23 1402.02 C 1448.97 1485.21 1387.96 1553.43 1308.55 1591.76 C 1281.35 1605 1230.52 1622.12 1200.1 1622 C 1200.8 1619.08 1204.62 1618.71 1207.39 1617.67 C 1214.24 1616.47 1221.98 1613.83 1228.53 1611.5 C 1307.88 1583.33 1365.04 1515.52 1372.01 1430.52 C 1373.5 1423.62 1372.96 1388.63 1372.96 1380.3 L 1372.91 1270.34 L 1372.99 896.997 L 1372.91 779.417 C 1372.88 759.704 1372.04 733.974 1373.27 714.954 z"/>
<path transform="translate(0,0)" fill="rgb(5,199,180)" d="M 676.767 1365.73 C 663.567 1363 647.167 1356.83 635.316 1350.58 C 598.38 1330.89 570.924 1297.17 559.14 1257 C 555.858 1246.09 552.927 1231.48 552.602 1220.04 C 551.306 1174.47 552.446 1128.72 551.958 1083.11 C 551.805 1068.74 551.449 1052.61 553.44 1038.51 C 556.065 1019.59 562.061 1001.29 571.145 984.488 C 594.363 942.033 630.592 918.709 675.847 905.244 C 678.832 912.915 677.017 1188.63 677.024 1223.33 L 677.05 1319.53 C 677.057 1328.63 677.736 1357.86 676.767 1365.73 z"/>
<path transform="translate(0,0)" fill="rgb(87,49,144)" d="M 1361.75 652.703 C 1370.49 671.312 1372.95 694.579 1373.27 714.954 C 1372.04 733.974 1372.88 759.704 1372.91 779.417 L 1372.99 896.997 L 1372.91 1270.34 L 1372.96 1380.3 C 1372.96 1388.63 1373.5 1423.62 1372.01 1430.52 C 1370.36 1417.22 1371.6 1376.28 1371.63 1360.16 L 1371.63 1215.56 L 1371.66 716.595 C 1365.31 715.043 1357.67 713.757 1351.16 712.517 L 1351.21 1148.53 L 1351.22 1294.01 C 1351.21 1305.52 1352.36 1378.55 1349.1 1382.94 L 1349.46 892.697 C 1349.47 871.312 1350.83 717.397 1348.29 710.764 L 1348.87 710.002 C 1351.89 711.682 1367.1 713.666 1371.87 714.557 C 1371.8 700.255 1370.26 687.796 1366.87 673.915 C 1365.21 667.124 1362.5 659.365 1361.75 652.703 z"/>
<path transform="translate(0,0)" fill="rgb(87,49,144)" d="M 1164.44 1623.12 C 1178.95 1623.37 1193.46 1618.47 1207.39 1617.67 C 1204.62 1618.71 1200.8 1619.08 1200.1 1622 C 1192.87 1624.46 1126.95 1626.14 1116.23 1625.12 C 1113.98 1624.85 1109.22 1624.78 1107.35 1624.12 C 1107.86 1624.1 1108.37 1624.08 1108.88 1624.07 C 1118.85 1624.95 1154.98 1624.7 1164.44 1623.12 z"/>
<path transform="translate(0,0)" fill="rgb(13,148,136)" d="M 701.816 901.576 C 745.393 898.191 788.518 912.342 821.618 940.886 C 887.455 996.997 880.414 1060.21 879.634 1137.93 C 878.952 1205.92 887.603 1256.58 838.922 1312.68 C 809.849 1346.15 768.61 1366.61 724.372 1369.53 C 715.904 1370.12 707.402 1370.01 698.952 1369.21 C 698.023 1364.1 698.416 1345.08 698.419 1338.66 L 698.469 1274.33 L 698.361 996.386 C 698.37 982.993 696.688 912.115 699.363 902.767 L 701.816 901.576 z"/>
<path transform="translate(0,0)" fill="rgb(250,247,241)" d="M 878.599 540.776 C 895.55 461.207 975.906 407.503 1055.86 425.514 C 1095.25 434.664 1129.35 459.176 1150.58 493.598 C 1156.7 503.499 1169.7 529.645 1170.14 540.842 L 1170 546.516 C 1170.67 551.807 1171.52 557.55 1171.97 562.822 C 1172.09 568.541 1172.11 574.261 1172.04 579.981 C 1171.19 619.973 1154.37 657.961 1125.33 685.473 C 1097.29 712.638 1059.51 727.393 1020.47 726.423 C 946.474 724.609 883.835 664.12 877.053 590.969 C 876.059 580.251 876.751 569.578 877.107 558.85 L 878.37 549.72 C 878.259 548.45 878.551 542.366 878.599 540.776 z"/>
<path transform="translate(0,0)" fill="rgb(161,157,153)" d="M 878.599 540.776 C 895.55 461.207 975.906 407.503 1055.86 425.514 C 1095.25 434.664 1129.35 459.176 1150.58 493.598 C 1156.7 503.499 1169.7 529.645 1170.14 540.842 L 1170 546.516 C 1157.88 501.17 1137.69 467.388 1095.73 443.26 C 1062.77 424.024 1023.44 418.901 986.654 429.05 C 948.078 439.717 915.415 465.455 896.022 500.467 C 890.177 510.818 886.297 520.555 882.593 531.842 C 881.341 535.656 879.475 547.825 878.37 549.72 C 878.259 548.45 878.551 542.366 878.599 540.776 z"/>
<path transform="translate(0,0)" fill="rgb(13,148,136)" d="M 1018.85 490.24 C 1050.97 487.188 1079.51 505.129 1078.04 540.402 C 1076.73 572.047 1046.56 571.577 1031.92 593.419 C 1023.71 605.663 1028.82 616.4 1025.84 626.834 L 1024.06 627.099 C 1022.32 624.209 1022.64 616.842 1022.84 613.29 C 1024.68 580.118 1046.25 579.017 1063.95 563.438 C 1067.66 559.028 1070.03 555.886 1072.2 550.445 C 1076.12 540.634 1075.79 529.634 1071.29 520.075 C 1054.11 482.95 994.208 484.748 980.116 523.652 C 976.591 533.383 978.387 545.377 975.729 555.277 L 975.001 554.528 C 969.813 520.838 984.397 496.175 1018.85 490.24 z"/>
<path transform="translate(0,0)" fill="rgb(13,148,136)" d="M 1023.29 648.56 C 1026.67 647.837 1030.01 649.905 1030.87 653.247 C 1031.73 656.588 1029.79 660.012 1026.49 661.006 C 1024.23 661.686 1021.78 661.074 1020.11 659.411 C 1018.43 657.748 1017.8 655.301 1018.47 653.037 C 1019.13 650.773 1020.98 649.054 1023.29 648.56 z"/>
<path transform="translate(0,0)" fill="rgb(124,58,237)" d="M 1170.14 540.842 C 1233.14 540.832 1273.07 544.812 1322.56 591.794 C 1334.62 603.246 1358.78 637.166 1361.75 652.703 C 1362.5 659.365 1365.21 667.124 1366.87 673.915 C 1370.26 687.796 1371.8 700.255 1371.87 714.557 C 1367.1 713.666 1351.89 711.682 1348.87 710.002 C 1336.55 630.838 1278.94 574.219 1198.45 566.961 C 1190.75 565.017 1184.43 566.483 1176.67 565.746 C 1173.05 565.401 1174.01 565.549 1171.97 562.822 C 1171.52 557.55 1170.67 551.807 1170 546.516 L 1170.14 540.842 z"/>
<path transform="translate(0,0)" fill="rgb(161,157,153)" d="M 877.107 558.85 C 876.751 569.578 876.059 580.251 877.053 590.969 C 883.835 664.12 946.474 724.609 1020.47 726.423 C 1059.51 727.393 1097.29 712.638 1125.33 685.473 C 1154.37 657.961 1171.19 619.973 1172.04 579.981 C 1172.11 574.261 1172.09 568.541 1171.97 562.822 C 1174.01 565.549 1173.05 565.401 1176.67 565.746 C 1184.43 566.483 1190.75 565.017 1198.45 566.961 C 1191.34 567.307 1181.48 566.922 1174.17 566.86 C 1174.15 574.06 1174.26 581.271 1173.63 588.445 C 1170.27 629.413 1150.6 667.314 1119.03 693.642 C 1089.25 718.412 1050.29 731.653 1011.54 727.926 C 971.922 724.054 935.45 704.646 910.106 673.95 C 886.45 644.964 871.121 604.456 874.786 566.876 C 866.401 567 858.014 566.989 849.628 566.843 C 859.421 564.159 866.578 568.385 874.845 564.731 C 876.061 564.193 876.617 560.604 877.107 558.85 z"/>
</svg>